<svg width="16" height="30" viewBox="0 0 16 30" fill="currentColor" xmlns="http://www.w3.org/2000/svg">
<path d="M12.4445 6.03687C13.4434 6.03687 14.4424 6.03688 15.1416 5.72439C15.5412 4.89108 15.741 3.74529 15.741 2.5995C15.5412 2.5995 15.6411 2.28701 15.5412 2.18285C15.5412 1.97452 15.2415 1.97452 15.2415 1.76619C14.9418 1.55787 14.742 1.34954 14.5422 1.14122C13.843 0.932891 13.1437 0.828728 12.3446 0.620402C11.5454 0.620402 10.4466 0.516237 9.74736 0.724563C7.15013 0.724563 5.75162 1.87036 4.45301 3.22447C4.45301 3.32864 4.45301 3.4328 4.35311 3.4328C3.75375 5.09941 4.25322 7.18266 4.15333 9.26592C4.25322 9.68258 4.25322 10.3076 4.35311 10.7242C3.35418 11.0367 2.15546 11.1409 0.956737 11.245C0.657057 11.5575 0.756949 12.3908 0.756949 13.0158C0.856843 13.6408 1.05663 14.1616 1.15652 14.6824C1.35631 14.8907 1.75588 15.099 1.95567 15.2032C2.05557 15.2032 2.05556 15.3074 2.05556 15.3074C2.55503 15.6199 3.55396 15.3074 4.35311 15.4115C4.25322 17.4948 4.65279 19.4739 4.35311 21.3488C4.35311 21.6613 4.65279 21.7655 4.5529 22.1821C4.5529 23.2238 4.45301 24.2654 4.75269 24.9945C4.45301 25.5153 4.25322 26.0362 4.35311 26.8695C4.45301 26.8695 4.45301 27.0778 4.45301 27.1819C4.35311 27.7028 5.05237 27.3903 4.95248 27.9111C5.15226 28.4319 4.5529 28.1194 4.5529 28.4319V29.3694C5.05237 29.6819 6.0513 29.5777 6.85045 29.5777C7.74949 29.161 9.04811 29.0569 9.64747 28.3277C10.1469 28.5361 10.5465 28.3277 10.8462 28.1194C10.8462 27.8069 11.1459 27.8069 11.046 27.3903C11.046 27.0778 10.8462 26.8695 10.9461 26.4528V23.4321C10.7463 21.0363 10.9461 18.3281 10.6464 15.9323C11.5454 15.8282 12.5444 15.8282 13.2436 15.5157C13.6432 14.9949 13.6432 14.2657 13.7431 13.5366C13.9429 13.3283 13.9429 12.9116 13.9429 12.495C14.1427 12.2867 14.0428 11.7658 14.0428 11.3492C13.9429 10.7242 13.843 9.99507 13.2436 9.8909C12.3446 9.68258 11.2458 10.5159 10.2468 10.2034C10.2468 9.0576 9.94715 7.80764 10.2468 6.66185C11.046 6.45352 11.7452 6.2452 12.4445 6.03687ZM8.64853 11.0367C8.74843 11.3492 8.94822 11.5575 9.04811 11.7658C9.148 11.7658 9.24789 11.7658 9.24789 11.87C10.4466 11.9742 11.4455 11.7658 12.3446 11.5575C12.3446 12.5991 12.0449 13.3283 11.8451 14.1616C11.1459 14.1616 10.3467 14.4741 9.84725 14.3699C9.54757 14.5782 9.44768 14.8907 9.24789 15.099C9.24789 15.5157 9.34779 15.6199 9.24789 15.9323C9.04811 16.0365 9.148 16.5573 9.04811 16.7657V18.3281C9.148 18.6406 8.94821 18.6406 8.94821 18.8489V22.4946C8.84832 22.8071 9.04811 22.8071 9.04811 23.0154V26.1403C9.148 26.4528 8.94821 26.9736 9.148 27.0778C9.04811 27.4944 8.74842 27.0778 8.34885 27.1819C7.84938 27.2861 7.44981 27.5986 6.85045 27.5986C6.95034 27.1819 7.15013 26.9736 7.15013 26.4528C7.15013 26.0362 6.75056 26.1403 6.65066 25.932C6.85045 25.307 7.25002 24.7862 7.34992 24.0571C7.5497 23.5362 8.04917 22.7029 7.6496 22.1821C7.15013 22.078 7.15013 22.4946 6.85045 22.5988C6.85045 22.7029 6.85045 22.8071 6.75056 22.8071C6.75056 22.9113 6.75056 23.0154 6.65066 23.0154C6.65066 23.1196 6.45088 23.1196 6.65066 23.0154C6.65066 22.9113 6.65066 22.8071 6.75056 22.8071C6.75056 22.7029 6.75056 22.5988 6.85045 22.5988V22.2863C7.25002 21.6613 7.54971 21.0363 7.6496 20.203C7.84939 19.8905 7.94928 19.4739 8.04917 19.1614C8.24896 18.8489 8.34885 18.2239 8.14907 17.9114C7.6496 17.9114 7.34992 18.2239 7.25002 18.6406C6.95034 18.4323 7.44981 18.2239 7.34992 17.9114C7.44981 17.7031 7.54971 17.2865 7.6496 17.0781C7.84939 16.6615 8.24896 15.724 7.6496 15.4115C7.25003 15.4115 7.05024 15.6199 6.95034 15.9323C6.75056 16.1407 6.55077 16.349 6.45088 16.6615C6.0513 16.5573 6.35098 15.9324 6.25109 15.5157C6.1512 14.9949 6.35098 14.5782 6.25109 14.2657C5.65173 13.4324 4.25322 14.1616 3.0545 13.9533C2.9546 13.6408 2.85471 12.9116 2.95461 12.7033C3.95354 12.5991 5.45194 12.9116 6.1512 12.495C6.1512 12.3908 6.1512 12.2866 6.25109 12.2866C6.35098 11.5575 5.95141 11.245 5.75162 10.8284C5.95141 9.99506 5.75162 8.74511 5.85151 7.70348C6.0513 7.59932 6.15119 7.28683 6.35098 7.0785C6.45087 6.03687 7.05024 5.51606 7.05024 4.47443C6.75056 4.47443 6.45088 4.37027 6.45088 4.68276C6.1512 4.57859 6.0513 5.20357 5.95141 4.89108C5.85152 4.37027 6.1512 4.2661 6.25109 3.84945C6.85045 3.4328 7.44981 3.01615 8.14907 2.5995C9.84725 2.39117 12.7442 2.18284 14.2426 2.80782C14.3425 3.4328 13.9429 3.74529 14.0428 4.37027H12.5444C11.4456 4.57859 10.5465 5.09941 9.54758 5.41189C9.34779 5.51606 9.2479 5.72438 9.04811 5.82855C9.04811 6.2452 8.84832 6.45353 8.74843 6.87018C8.44875 8.32846 8.64853 9.57841 8.64853 11.0367Z" fill="currentColor"/>
</svg>
