<svg width="28" height="35" viewBox="0 0 28 35" fill="none" xmlns="http://www.w3.org/2000/svg">
<path d="M14.1112 0.0444336H14.0112L0.51123 1.44443V26.1444L14.0112 34.1444L27.4112 26.1444V1.44443L14.1112 0.0444336ZM25.5112 12.1444L14.0112 5.34443V5.24443H13.9112L13.8112 5.14443V5.24443L2.41123 12.1444V3.14443L13.9112 1.94443L25.5112 3.14443V12.1444ZM13.9112 6.84443L25.4112 13.5444L20.9112 16.1444L13.8112 11.9444V13.3444L19.7112 16.8444L18.8112 17.3444L13.8112 14.3444V15.7444L17.6112 18.0444L16.8112 18.5444L13.8112 16.7444V18.1444L15.7112 19.2444L13.9112 20.3444L2.51123 13.6444L13.9112 6.84443ZM2.41123 15.1444L13.8112 21.9444V22.9444L5.91123 18.2444V19.6444L13.9112 24.4444V25.5444L5.91123 20.8444V22.2444L13.9112 27.0444L22.0112 22.1444V16.9444L25.4112 14.9444V24.9444L13.9112 31.8444L2.41123 25.0444V15.1444Z" fill="#63D1BB"/>
</svg>
