<svg width="102" height="35" viewBox="0 0 102 35" fill="none" xmlns="http://www.w3.org/2000/svg">
<path d="M19.2204 21.5C19.1204 18.8 18.7204 16.2 18.7204 13.5C18.7204 11.3 19.1204 9.09997 18.3204 6.99997C18.3204 6.79997 18.4204 6.49997 18.4204 6.29997C18.6204 5.29997 15.1204 5.79997 14.6204 6.79997C14.3204 7.09997 14.1204 7.39997 14.2204 7.79997C14.2204 7.89997 14.3204 7.99997 14.3204 8.09997C13.6204 11.3 12.7204 14.4 11.7204 17.5C11.3204 18.7 10.8204 19.8 10.4204 21C9.82041 19.9 9.22041 18.8 8.82041 17.6C7.42041 14.2 6.22041 10.7 4.52041 7.39997C4.72041 5.89997 1.32041 5.99997 0.620408 7.39997C-0.179592 9.09997 -0.0795918 10.8 0.220408 12.6C0.520408 14.6 0.620408 16.6 0.620408 18.7C0.620408 22.7 1.02041 26.6 1.02041 30.6C0.620408 31 0.520408 31.5 0.920408 32C1.12041 32.2 1.32041 32.4 1.52041 32.5C2.52041 33.2 5.12041 32.6 5.12041 31.2C5.12041 27.1 4.82041 23 4.72041 18.8C4.72041 18.4 4.72041 18 4.72041 17.6C4.82041 17.7 4.82041 17.9 4.92041 18C5.52041 19.6 6.22041 21.2 7.12041 22.7C8.02041 24.2 8.42041 25.8 8.92041 27.4C8.72041 27.6 8.62041 27.9 8.72041 28.1C8.72041 28.3 8.82041 28.4 9.02041 28.5C9.62041 29 10.8204 28.8 11.5204 28.5C11.8204 28.4 12.1204 28.2 12.3204 28.1C12.6204 27.9 13.2204 27.4 13.0204 26.9C13.0204 26.8 12.9204 26.7 12.9204 26.6C13.4204 25.3 13.6204 24 13.9204 22.7C14.2204 21.3 14.7204 19.9 15.2204 18.6C15.3204 19.2 15.3204 19.8 15.4204 20.5C15.6204 23.1 15.4204 25.6 15.4204 28.1C15.4204 28.9 15.5204 29.7 15.6204 30.6C15.7204 30.9 16.0204 32.4 15.9204 32.5C15.1204 33 15.3204 33.6 16.1204 33.8C17.0204 34 18.2204 33.7 18.9204 33.1C20.1204 32 19.5204 30.3 19.3204 28.9C18.8204 26.5 19.3204 23.9 19.2204 21.5Z" fill="black"/>
<path d="M27.6204 22.2C27.5204 20.2 26.8204 18.3 26.8204 16.3C26.8204 14 27.0204 11.7 26.6204 9.39997C26.5204 8.69997 22.5204 9.49997 22.7204 10.4C23.0204 12.5 22.9204 14.6 22.9204 16.8C22.9204 18.8 23.4204 20.7 23.6204 22.7C23.9204 24.8 23.5204 26.9 23.7204 28.9C23.8204 29.9 24.5204 31.6 23.8204 32.5C23.4204 33 25.3204 32.8 25.4204 32.8C26.2204 32.7 27.2204 32.4 27.7204 31.8C28.4204 31 27.9204 29.4 27.8204 28.4C27.5204 26.4 27.7204 24.2 27.6204 22.2Z" fill="black"/>
<path d="M43.9204 18.9C41.8204 16.1 38.0204 18.1 35.3204 17.4C33.9204 17 33.9204 15.1 33.9204 14C33.9204 12.6 33.8204 11.3 33.6204 9.90003C33.5204 8.80003 33.6204 7.80003 34.3204 7.00004C34.4204 6.90004 35.2204 6.70003 35.1204 6.70003C35.5204 6.60003 35.8204 6.60003 36.2204 6.60003C37.7204 6.50003 40.8204 6.80004 40.2204 9.10004C39.9204 10.1 43.8204 9.50004 44.1204 8.50004C45.3204 3.90004 36.8204 4.80004 34.4204 5.40004C32.2204 6.00004 29.8204 7.20004 29.6204 9.80003C29.5204 11 29.9204 12.2 29.9204 13.4C30.0204 14.8 29.7204 16.2 30.2204 17.5C31.3204 20.5 35.7204 19.1 38.0204 19.2C41.8204 19.5 40.7204 24.7 40.7204 27.1C40.7204 28.4 41.9204 30.5 40.9204 31.6C40.3204 32.3 38.9204 32.3 38.1204 32.4C37.3204 32.5 35.9204 32.7 35.4204 31.9C34.4204 30.5 35.5204 28.1 35.3204 26.5C35.2204 25.6 31.2204 26.4 31.4204 27.5C31.7204 30.1 30.0204 33.6 33.8204 34.1C36.2204 34.4 39.0204 33.9 41.3204 33.2C42.5204 32.8 43.6204 32.3 44.5204 31.4C45.5204 30.5 45.2204 29.1 44.9204 27.9C44.4204 24.8 45.8204 21.4 43.9204 18.9Z" fill="black"/>
<path d="M61.3204 18.7C61.2204 14.9 60.6204 11.2 60.6204 7.39996C60.6204 5.39996 56.6204 6.09996 56.6204 7.69996C56.6204 11.3 57.1204 14.9 57.3204 18.5C57.3204 18.6 57.3204 18.6 57.3204 18.7C55.4204 18.7 53.4204 18.9 51.4204 18.9C51.6204 14.3 50.8204 9.69996 51.0204 4.99996C51.0204 4.39996 47.1204 4.89996 47.1204 5.99996C46.9204 10.5 47.7204 14.9 47.6204 19.4C47.5204 21.5 47.4204 23.7 47.3204 25.8C47.3204 26.9 47.5204 28 47.6204 29.1C47.7204 30.1 48.1204 31.4 47.8204 32.4C47.6204 33.2 51.4204 32.7 51.7204 31.7C52.2204 29.9 51.5204 27.7 51.3204 25.9C51.1204 24.2 51.3204 22.4 51.4204 20.7C53.4204 20.6 55.5204 20.4 57.5204 20.7C57.6204 22.1 57.7204 23.5 57.8204 24.8C57.9204 26 58.0204 27.1 58.0204 28.3C58.0204 29.3 58.1204 30.8 57.8204 31.8C57.0204 33.9 60.9204 33.7 61.5204 32.2C62.2204 30.3 62.0204 28 61.9204 26C61.7204 23.5 61.3204 21.1 61.3204 18.7Z" fill="black"/>
<path d="M78.2204 23.1C77.3204 20.3 75.8204 17.9 74.6204 15.3C75.6204 13.4 76.6204 11.4 77.5204 9.40004C78.3204 7.60004 78.9204 5.60004 80.6204 4.30004C81.2204 3.90004 81.2204 3.40004 80.3204 3.30004C79.4204 3.20004 78.2204 3.50004 77.5204 4.00004C76.1204 5.30004 75.1204 6.70004 74.4204 8.40004C73.5204 10.5 72.5204 12.5 71.5204 14.5C71.4204 14.6 71.4204 14.8 71.3204 14.9C70.8204 15.2 70.5204 15.7 70.7204 16.2C69.9204 17.8 69.1204 19.3 68.2204 20.8C67.9204 15.3 67.2204 9.70004 67.0204 4.20004C67.0204 2.90004 63.0204 3.70004 63.1204 5.20004C63.3204 12.1 64.3204 18.9 64.4204 25.8C64.4204 25.8 64.4204 25.8 64.4204 25.9C64.1204 26.2 64.2204 26.4 64.5204 26.5C64.5204 28.3 64.4204 30 64.3204 31.8C63.8204 32.5 64.8204 32.9 65.4204 32.9H65.5204C66.2204 32.9 68.1204 32.6 68.2204 31.5C68.4204 29.4 68.5204 27.3 68.4204 25.2C70.0204 23.5 71.3204 21.6 72.5204 19.6C73.3204 21.1 74.0204 22.6 74.5204 24.2C75.4204 26.9 76.8204 29.5 77.6204 32.2C78.1204 34 82.1204 32.9 81.5204 31.2C80.5204 28.4 79.1204 25.9 78.2204 23.1Z" fill="black"/>
<path d="M101.72 18.5C101.52 17.7 100.32 17.7 99.4204 17.7C99.4204 17.4 99.4204 17 99.4204 16.7C99.3204 14 99.2204 11.3 99.0204 8.70002C98.8204 6.20002 97.4204 5.40002 95.0204 5.50002C92.6204 5.60002 89.8204 6.00002 87.5204 6.90002C84.9204 7.90002 83.4204 9.80002 82.9204 12.6C82.4204 15.6 83.1204 18.8 83.3204 21.8C83.5204 25.3 83.4204 28.8 83.4204 32.3C83.4204 32.9 87.3204 32.3 87.3204 31.3C87.3204 28.5 87.3204 25.7 87.3204 23C87.3204 22.2 87.2204 21.4 87.2204 20.6C88.6204 20 90.9204 20.6 92.3204 20.7C93.4204 20.8 94.5204 20.5 95.5204 20.4C95.5204 22.7 95.6204 25 95.7204 27.3C95.7204 28.5 96.2204 30.8 95.3204 31.8C94.9204 32.3 96.8204 32.1 96.9204 32.1C97.7204 32 98.7204 31.7 99.2204 31.1C100.12 30 99.7204 27.3 99.6204 26C99.5204 24.1 99.5204 22.2 99.5204 20.3C100.62 20.1 101.92 19.4 101.72 18.5ZM87.1204 18.4C87.0204 17.2 86.9204 15.9 86.8204 14.7C86.6204 12.4 86.9204 9.10002 89.1204 7.70002C89.7204 7.30002 90.8204 7.40002 91.5204 7.30002C92.5204 7.10002 93.5204 6.90002 94.3204 7.50002C95.5204 8.30002 95.2204 11.2 95.2204 12.4C95.2204 14.4 95.4204 16.4 95.5204 18.4C94.9204 18.5 94.4204 18.5 93.8204 18.5C91.5204 18.3 89.2204 17.9 87.1204 18.4Z" fill="black"/>
<path d="M24.2204 6.7C24.7204 6.6 25.2204 6.5 25.7204 6.2C25.8204 6.1 25.9204 6 25.9204 6C26.4204 5.7 26.9204 5.2 26.6204 4.6C26.1204 3.5 26.2204 2.4 26.2204 1.2C26.2204 0.2 25.2204 0 24.4204 0C23.7204 0.1 22.2204 0.6 22.2204 1.5C22.2204 2.5 22.1204 3.5 22.3204 4.5C22.3204 4.6 22.2204 4.7 22.2204 4.9C22.1204 5.1 22.2204 5.3 22.3204 5.5V5.6C22.3204 5.7 22.3204 5.8 22.3204 5.9C22.4204 6.1 22.5204 6.3 22.7204 6.4C23.3204 6.7 23.8204 6.7 24.2204 6.7Z" fill="black"/>
</svg>
