<svg style="display: none;" xmlns="http://www.w3.org/2000/svg" xmlns:xlink="http://www.w3.org/1999/xlink">
  <symbol viewBox="0 0 22 22" id="instagram">
    <path d="M21.8577 12.2C21.8577 9.8 21.5577 7.4 21.5577 5.1C21.5577 4.3 21.4577 3.6 21.3577 2.8C21.2577 2.5 21.2577 2.1 21.1577 1.7C20.8577 1.5 20.9577 1.1 20.6577 0.900002C20.2577 0.700002 19.4577 0.800001 18.9577 0.700001C18.2577 0.700001 17.6577 0.6 17.0577 0.5C15.1577 0.4 13.0577 0.400002 11.0577 0.400002C9.05774 0.400002 7.05774 0.3 5.35774 0H3.15774C3.05774 0 3.05774 0.100002 2.95774 0.100002C2.35774 0.100002 1.85774 0.300002 1.35774 0.400002C1.15774 0.500002 0.957737 0.600001 0.657737 0.700001C0.557737 0.900001 0.157735 0.800002 0.057735 1.1C-0.142265 1.3 0.257735 1.6 0.057735 1.7V2.6C0.257735 2.7 0.0577373 3.2 0.157737 3.4V4.4C0.157737 5.7 0.257736 6.8 0.257736 8.1C0.757736 10.9 0.657738 14.6 0.357738 17.5C0.557738 18.1 0.757738 18.6 0.857738 19.2C1.15774 19.7 1.15774 20.3 1.55774 20.7C2.05774 20.9 2.75774 20.9 3.45774 20.9C3.85774 21 4.15773 21.2 4.55773 21.2C7.35773 21 10.0577 21 12.9577 21C15.6577 21.2 18.7577 21.2 21.2577 20.8C21.4577 20.7 21.3577 20.3 21.4577 20C21.3577 19.6 21.6577 19.6 21.6577 19.2C21.8577 17.1 21.8577 14.7 21.8577 12.2ZM8.85774 6C9.65774 5.8 10.3577 5.7 11.2577 5.7C11.9577 5.8 12.5577 6 13.1577 6.2C13.2577 6.4 12.9577 6.7 13.3577 6.9C13.4577 6.9 13.4577 6.9 13.5577 7C13.9577 7 14.3577 7.2 14.6577 7.4C15.1577 7.5 15.1577 7.9 15.7577 7.8C15.6577 8 15.6577 8.3 15.6577 8.6C15.9577 9.8 16.1577 11.4 15.9577 12.9C15.7577 13.1 15.7577 13.3 15.6577 13.6C15.3577 13.9 15.1577 14.4 14.8577 14.7C14.7577 14.9 14.5577 15.1 14.3577 15.2C14.2577 15.4 14.1577 15.7 13.8577 15.7C13.5577 15.9 13.2577 15.7 13.0577 15.6C12.6577 15.8 12.1577 15.9 11.8577 16.2C11.0577 16.1 10.2577 16 9.45774 15.9C9.25774 15.8 8.95774 15.6 8.65774 15.6C8.45774 15.4 8.15774 15.2 7.85774 15.1C7.75774 15 7.55774 15 7.35774 14.9C7.15774 14.9 7.15774 14.7 6.85774 14.7C6.75774 14.3 6.45774 14.1 6.35774 13.6C6.15774 13.3 6.05774 12.8 5.85774 12.4C5.85774 11 5.95774 9.7 6.25774 8.6C6.55774 8 7.05774 7.5 7.35774 6.9C7.55774 6.9 7.75774 6.8 7.75774 6.6C8.05774 6.7 8.15774 6.5 8.45774 6.5C8.65774 6.5 8.65774 6.2 8.85774 6ZM7.15774 3.3C7.05774 3 7.05773 2.6 7.05773 2.2C7.05773 1.9 7.35774 1.9 7.35774 1.7C7.35774 1.6 7.25774 1.6 7.15774 1.6C7.25774 1.5 7.85774 1.5 7.95774 1.6C8.05774 2.1 7.55774 2.1 7.45774 2.3C7.45774 2.5 7.75774 2.3 7.95774 2.4C7.95774 3.3 7.85774 3.9 7.95774 4.6H7.45774C7.45774 4.8 7.65774 4.8 7.95774 4.8C7.85774 5.1 8.05774 5.2 8.05774 5.4C7.85774 5.6 7.35774 5.4 6.95774 5.5C6.95774 4.9 7.25774 4.1 7.15774 3.3ZM6.45774 1.7C6.55774 1.7 6.55774 1.7 6.65774 1.8C6.85774 2.1 6.65773 2.5 6.55773 2.7C6.35773 2.5 6.55774 2 6.45774 1.7ZM6.65774 3.5C6.55774 3.4 6.45774 3.3 6.45774 3C6.65774 3.1 6.65774 3.3 6.65774 3.5ZM6.65774 4.9C6.55774 5 6.55773 4.9 6.55773 4.7C6.65773 4.6 6.65774 4.8 6.65774 4.9ZM6.45774 5.1C6.65774 5.1 6.55774 5.3 6.65774 5.3C6.65774 5.5 6.35774 5.5 6.25774 5.4C6.35774 5.3 6.45774 5.2 6.45774 5.1ZM4.15774 3.9C4.15774 3.8 4.15773 3.7 4.05773 3.7C3.95773 3 4.15773 2.3 4.05773 1.7C4.35773 1.5 4.85774 1.7 5.15774 1.6V2.7C5.05774 2.8 4.95774 2.8 4.75774 2.8C4.65774 3.1 5.05774 2.9 5.15774 3.1C5.15774 4 5.05774 4.9 5.35774 5.5C4.75774 5.4 4.45774 5.6 3.95774 5.6C4.05774 5 3.95774 4.2 4.45774 4C4.45774 3.9 4.15774 4 4.15774 3.9ZM3.65774 3.9C3.45774 3.9 3.45773 3.4 3.55773 3.3C3.85773 3.3 3.75774 3.8 3.65774 3.9ZM3.45774 4.9C3.55774 4.6 3.45773 4.6 3.55773 4.2C3.75773 4.2 3.75774 5 3.45774 4.9ZM3.65774 2.8C3.35774 2.9 3.35774 2.5 3.45774 2.4C3.75774 2.4 3.85774 2.7 3.65774 2.8ZM3.65774 1.7C3.65774 1.9 3.55773 1.9 3.55773 2C3.35773 2 3.45774 1.8 3.35774 1.8C3.45774 1.7 3.55774 1.7 3.65774 1.7ZM3.45774 5.4C3.55774 5.4 3.55774 5.7 3.35774 5.6C3.45774 5.6 3.45774 5.5 3.45774 5.4ZM2.75774 1.7C2.75774 2 2.35774 2 2.35774 1.7H2.75774ZM1.75774 1.8C1.75774 2 1.45774 2 1.35774 2.2C1.15774 2 1.45774 1.7 1.75774 1.8ZM1.35774 2.5C1.55774 2.3 1.85773 2.1 2.05773 1.9C2.05773 1.8 2.15774 1.8 2.15774 1.7H2.35774C2.45774 2.1 2.05773 2 2.05773 2.2C2.05773 2.3 1.95774 2.3 1.95774 2.4C1.95774 2.7 2.05773 3 2.05773 3.4C1.75773 3.4 1.75774 3.7 1.45774 3.6C1.45774 3.2 1.25774 3 1.35774 2.5ZM1.45774 5.8V4.2C1.65774 4 1.85773 3.8 2.05773 3.7C2.35773 4.2 2.25773 5.1 2.55773 5.6C2.15773 5.7 1.75774 5.7 1.45774 5.8ZM19.6577 16.9C19.5577 17.9 19.4577 18.9 19.2577 19.7C16.3577 19.8 13.2577 19.7 10.3577 19.9C10.1577 19.9 10.0577 19.9 10.1577 19.7C9.85774 19.7 9.85774 19.9 9.65774 19.9C9.85774 19.6 10.0577 19 9.85774 18.6C9.05774 18.6 9.05774 19.4 8.75774 19.9C8.05774 19.8 7.65774 20 6.95774 20C7.15774 19.3 7.65774 19 7.85774 18.3C7.45774 17.8 6.85774 18.4 6.65774 18.8C6.45774 19.3 6.05774 19.6 5.85774 20.1H4.85774C5.05774 19.6 5.35774 19.2 5.65774 18.7C5.85774 18.2 6.25774 18 6.35774 17.3C6.15774 17 5.95774 17.3 5.65774 17.3C5.55774 17.5 5.35774 17.6 5.25774 17.8C5.05774 18.2 4.75773 18.5 4.55773 18.9C4.35773 19.1 4.25773 18.9 4.05773 19.1C3.65773 19.4 3.45773 19.8 3.05773 20.1C2.85773 20 3.05774 19.7 3.25774 19.7C3.25774 19.5 3.15774 19.2 3.35774 19.1C3.45774 18.7 3.55774 18.5 3.75774 18.2C3.85774 17.5 4.25774 17 4.45774 16.3C3.85774 16.4 3.75774 16.9 3.45774 17.3C3.25774 17.7 2.95774 18.1 2.75774 18.6C2.55774 18.5 2.75774 18 2.65774 17.8C2.75774 17.2 2.95773 16.7 3.05773 16.1C3.15773 15.9 3.25774 15.6 3.25774 15.3C3.45774 15.1 3.25774 14.7 3.15774 14.5C2.95774 14.5 2.75774 14.6 2.65774 14.8C2.45774 14.8 2.45774 15.3 2.35774 15.1C2.35774 12.5 1.85774 10.3 1.85774 7.7C1.85774 7.4 1.65774 7.3 1.65774 7C3.25774 7 4.75774 7.1 6.45774 7.2C6.35774 7.3 6.25774 7.5 6.15774 7.6C6.05774 7.7 5.95774 7.8 5.75774 7.9C5.15774 9.6 4.75774 11.9 5.15774 14.1C5.35774 14.7 5.75774 15.1 6.15774 15.5C7.05774 16 7.75774 16.6 8.65774 17.2C10.3577 17.6 12.4577 17.6 14.1577 17.2C14.3577 17.1 14.6577 17 14.8577 16.8C16.2577 15.6 17.6577 14.3 17.8577 11.9V10.5C17.6577 8.9 17.1577 7.6 16.1577 6.9C16.4577 6.7 17.2577 6.9 17.8577 7C18.0577 7 18.2577 7 18.5577 7C18.9577 7 19.4577 6.9 19.9577 7C20.0577 7.2 20.0577 7.5 20.1577 7.8C20.0577 9.5 19.9577 11.1 19.9577 12.9C20.0577 13.4 20.0577 13.9 20.1577 14.3C19.9577 15.1 19.8577 16 19.6577 16.9ZM20.0577 5.7C19.4577 5.6 18.8577 5.4 18.1577 5.3C18.2577 5 18.9577 5.3 19.1577 5.1C19.5577 4.9 19.4577 4.2 19.4577 3.6C19.4577 3.3 19.5577 3 19.5577 2.5C19.1577 1.5 17.7577 2.1 16.6577 2C16.4577 2.7 16.1577 3.8 16.3577 4.7C16.5577 5.2 17.3577 5 17.8577 5.2C17.7577 5.5 17.1577 5.3 16.8577 5.3C16.5577 5.2 16.1577 5.2 15.8577 5.1C13.5577 5.2 11.5577 5.1 9.35774 5.3C9.45774 4.1 9.45774 2.8 9.25774 1.7H12.3577C12.0577 2.1 11.4577 2.2 11.0577 2.5C10.6577 2.7 10.1577 3 9.95774 3.4C10.1577 3.5 10.4577 3.2 10.7577 3C11.1577 2.9 11.2577 2.6 11.5577 2.5C11.9577 2.1 12.6577 1.9 13.2577 1.6C13.6577 1.6 13.9577 1.6 14.2577 1.7C15.5577 1.7 16.7577 1.8 18.0577 1.8C18.6577 1.9 19.5577 1.9 20.0577 2.1C20.1577 2.4 20.2577 2.7 20.3577 3C20.2577 4 20.0577 4.8 20.0577 5.7ZM14.1577 2C14.1577 1.9 14.2577 1.9 14.1577 2ZM14.1577 2C13.6577 2.2 13.1577 2.3 12.7577 2.7C13.2577 2.5 13.8577 2.4 14.1577 2ZM15.2577 2.6C15.2577 2.5 15.3577 2.5 15.2577 2.6ZM13.4577 3.5C14.1577 3.3 14.6577 2.9 15.1577 2.6C14.7577 2.6 14.5577 2.9 14.1577 3C14.0577 3.2 13.6577 3.2 13.4577 3.5ZM12.7577 2.7C12.8577 2.8 12.6577 2.7 12.7577 2.7ZM12.1577 3.3C12.1577 3.2 12.2577 3.2 12.1577 3.3ZM12.0577 3.4C12.1577 3.3 12.1577 3.4 12.0577 3.4C12.0577 3.3 12.0577 3.3 12.0577 3.4ZM11.9577 3.4C12.0577 3.4 12.0577 3.4 11.9577 3.4ZM11.1577 4C11.4577 3.9 11.7577 3.7 11.9577 3.4C11.6577 3.6 11.3577 3.8 11.1577 4ZM13.4577 5C13.9577 5 14.1577 4.6 14.6577 4.5C14.9577 4.2 15.4577 4.1 15.6577 3.7C15.0577 3.7 14.8577 4.1 14.4577 4.2C14.1577 4.6 13.6577 4.7 13.4577 5ZM11.1577 4C11.1577 4.3 10.8577 4 11.1577 4ZM10.5577 4.4C10.7577 4.4 10.6577 4.4 10.5577 4.4ZM13.4577 5C13.4577 5.1 13.2577 5.1 13.4577 5ZM12.2577 6.8C12.0577 6.6 11.5577 6.6 11.2577 6.4C10.5577 6.4 10.0577 6.5 9.55774 6.6C9.25774 6.8 8.95774 6.9 8.65774 7.1C8.35774 7.3 8.25774 7.5 7.85774 7.6C7.65774 7.8 7.45774 8.1 7.15774 8.2C7.15774 8.4 6.95774 8.5 6.85774 8.6C6.75774 8.7 6.75774 8.9 6.65774 9C6.65774 9.1 6.65773 9.3 6.55773 9.3C6.65773 10.8 6.85774 12.2 7.25774 13.5C7.55774 14.1 8.25774 14.3 8.65774 14.8C9.25774 15.1 9.95774 15.2 10.7577 15.3C11.0577 15.2 11.3577 15.2 11.6577 15.2C12.8577 15 13.7577 14.5 14.4577 13.8C14.5577 13.5 14.7577 13.3 14.9577 13.1C14.6577 12.4 15.2577 12 15.4577 11.5C15.4577 10.2 15.2577 9 14.8577 8.1C14.5577 7.5 13.9577 7.3 13.4577 7C13.3577 7 13.2577 7 13.2577 6.9C13.0577 6.8 12.5577 6.7 12.2577 6.8ZM8.85774 11.2C8.75774 11.1 8.75774 11 8.65774 10.8C8.95774 10.7 8.85774 11 8.85774 11.2ZM8.95774 11.5C9.05774 11.5 8.95774 11.4 8.95774 11.5C8.95774 11.6 8.95774 11.7 8.95774 11.5ZM9.35774 9.4C9.45774 9.4 9.35774 9.3 9.35774 9.4C9.35774 9.5 9.45774 9.5 9.35774 9.4ZM11.0577 7.3C10.8577 7.6 11.0577 7.9 11.1577 8.1C10.8577 8.1 10.5577 7.3 11.0577 7.3ZM11.4577 11.2C11.4577 11.3 11.5577 11.2 11.4577 11.2ZM12.1577 14.1C12.1577 14 12.2577 14.1 12.3577 14.1C12.3577 14.2 12.1577 14.2 12.1577 14.1ZM14.3577 11.6C14.1577 11.5 14.2577 11.8 13.9577 11.8C14.0577 11.6 14.0577 11.5 14.1577 11.3C14.3577 11.3 14.4577 11.4 14.3577 11.6ZM13.2577 7.8C13.4577 7.9 13.6577 8 13.8577 8.2C13.9577 8.4 14.0577 8.6 14.2577 8.7C14.3577 9.5 14.4577 10.2 14.4577 11.1C14.1577 11.2 14.0577 11.4 13.7577 11.5C12.9577 11.5 12.3577 11.3 11.8577 11C11.6577 10.7 11.4577 10.5 11.3577 10.2V9.1C11.5577 8.9 11.6577 8.7 11.8577 8.5C12.0577 8.4 12.3577 8.3 12.3577 7.9C12.3577 7.8 12.2577 7.8 12.2577 7.7C12.4577 7.7 12.4577 7.9 12.6577 7.9C12.8577 7.9 12.9577 7.7 13.2577 7.8Z"/>
  </symbol>
</svg>
