<svg width="25" height="20" viewBox="0 0 25 20" fill="currentColor" xmlns="http://www.w3.org/2000/svg">
<path d="M24.367 4.39434C24.167 3.99434 23.467 4.09434 22.967 3.99434H21.867C21.967 3.59434 22.167 3.39434 22.367 2.99434C22.467 2.59434 22.667 2.29434 22.567 1.69434C22.667 1.49434 22.767 1.29433 22.867 1.09433C22.967 0.994334 23.067 0.594337 22.967 0.394337C22.867 0.194337 22.667 0.194336 22.367 0.194336C22.267 0.194336 22.167 0.294334 22.167 0.294334C21.767 0.694334 21.367 1.29434 20.867 1.69434H20.767C20.667 1.69434 20.767 1.69433 20.667 1.79433C20.567 1.89433 20.367 1.99434 20.267 1.99434C19.967 2.19434 19.767 2.39434 19.367 2.49434C18.867 2.29434 18.167 2.19433 17.467 2.09433C16.267 2.19433 15.167 2.29433 14.467 2.79433C13.567 3.09433 12.967 3.79434 12.367 4.39434C12.367 4.69434 12.067 4.79433 11.967 5.09433C11.967 5.09433 11.967 5.19434 11.867 5.19434C11.867 5.39434 11.767 5.49434 11.767 5.69434C11.767 5.79434 11.967 6.09434 11.767 6.19434C10.967 6.09434 10.267 5.59434 9.66698 5.19434C8.96698 4.79434 8.16698 4.59433 7.56698 4.09433C6.86698 3.79433 6.26698 3.29433 5.76698 2.79433C5.56698 2.49433 5.26698 2.29434 5.06698 1.89434C4.66698 1.69434 4.86698 0.994335 4.36698 0.994335C4.06698 0.994335 4.06698 1.19434 3.96698 1.39434C3.86698 1.59434 3.56698 1.59434 3.56698 1.89434C3.56698 1.89434 3.56698 1.99434 3.46698 1.99434C3.26698 3.09434 2.96698 3.99433 2.96698 5.29433C3.06698 5.69433 3.26698 5.99433 3.56698 6.29433C3.16698 6.39433 2.86698 6.49433 2.66698 6.79433C2.56698 7.89433 3.06698 8.39433 3.36698 9.09433C3.46698 9.49433 3.76698 9.79433 3.96698 10.0943C3.96698 10.2943 4.16698 10.3943 4.26698 10.4943C4.26698 10.5943 4.36698 10.5943 4.36698 10.6943C4.36698 10.7943 4.66698 10.8943 4.46698 10.8943C4.06698 10.9943 3.46698 10.9943 3.16698 11.2943C3.06698 11.5943 3.06698 12.0943 3.16698 12.3943C3.16698 12.5943 3.46698 12.6943 3.46698 12.8943C3.96698 13.2943 4.56698 13.5943 5.06698 13.9943C5.66698 14.1943 6.26698 14.2943 6.96698 14.3943C6.86698 14.6943 6.66698 14.9943 6.36698 15.0943C5.56698 15.4943 4.56698 15.5943 3.66698 15.7943C3.06698 15.7943 2.66698 15.9943 2.06698 15.9943C1.76698 16.0943 1.16698 16.0943 0.96698 16.1943C0.86698 16.2943 0.86698 16.2943 0.76698 16.3943C0.66698 16.7943 0.866981 17.0943 1.16698 17.2943C1.16698 17.5943 1.36698 17.5943 1.56698 17.6943C1.66698 17.8943 1.86698 17.9943 1.96698 18.0943C2.46698 18.5943 3.26698 18.8943 3.86698 19.1943C4.66698 19.3943 5.46698 19.5943 6.36698 19.6943C7.26698 19.7943 8.26698 19.7943 9.16698 19.8943H10.167C10.667 19.9943 11.367 19.9943 12.067 19.9943C12.167 19.8943 12.367 19.8943 12.567 19.8943C13.067 19.5943 13.767 19.4943 14.167 19.1943C14.767 18.9943 15.167 18.5943 15.767 18.2943C16.667 17.4943 17.667 16.9943 18.267 15.8943C18.467 15.6943 18.667 15.4943 18.667 15.1943C18.967 14.9943 19.067 14.6943 19.267 14.4943C19.667 14.0943 19.967 13.5943 20.267 13.0943C20.567 12.5943 20.867 11.9943 21.167 11.4943C21.167 11.0943 21.467 10.9943 21.467 10.5943C21.667 10.3943 21.667 9.89434 21.867 9.69434C21.867 9.39434 21.867 9.29433 21.967 9.09433C21.967 7.79433 21.967 6.69434 21.667 5.69434C22.267 5.49434 22.867 5.39433 23.267 5.09433C24.067 5.39433 24.567 4.99434 24.367 4.39434ZM20.967 8.39434C20.767 9.29434 20.367 9.79434 19.967 10.3943C20.067 10.7943 19.867 10.8943 19.867 11.2943C19.667 11.5943 19.567 11.9943 19.467 12.2943C19.267 12.5943 19.167 12.8943 18.967 13.1943C18.567 13.6943 18.167 14.2943 17.767 14.7943C17.367 15.3943 16.867 15.7943 16.467 16.2943C16.067 16.7943 15.567 17.1943 15.067 17.5943C14.567 17.7943 14.167 17.9943 13.767 18.2943C13.567 18.3943 13.267 18.4943 13.067 18.5943C12.867 18.6943 12.567 18.6943 12.367 18.8943C11.267 18.9943 10.067 19.0943 8.76698 18.9943C7.76698 18.8943 6.66698 18.7943 5.76698 18.5943C4.86698 18.3943 4.26698 17.8943 3.46698 17.5943C3.66698 17.3943 4.06698 17.3943 4.46698 17.3943C4.46698 17.1943 4.86698 17.3943 4.86698 17.2943C5.16698 17.3943 5.16698 17.1943 5.36698 17.1943C5.96698 16.9943 6.56698 16.8943 7.06698 16.5943C7.36698 16.4943 7.46698 16.1943 7.76698 15.9943C7.76698 15.7943 7.86698 15.6943 7.96698 15.5943C7.96698 15.2943 8.16698 15.1943 8.06698 14.7943C8.16698 14.5943 8.36698 14.4943 8.36698 14.0943C8.26698 13.9943 8.26698 13.7943 8.06698 13.6943C8.06698 13.4943 7.66698 13.5943 7.66698 13.4943C7.36698 13.4943 7.26698 13.4943 7.06698 13.3943C6.86698 13.3943 6.56698 13.4943 6.56698 13.2943C5.76698 13.2943 5.26698 12.8943 4.66698 12.5943C5.06698 12.2943 5.66698 12.1943 5.96698 11.8943C6.46698 11.7943 7.06698 11.7943 7.06698 11.1943C7.06698 10.4943 6.26698 10.4943 5.76698 10.3943C4.96698 9.69434 4.56698 8.69434 3.96698 7.89434C4.16698 7.69434 4.56698 7.69433 4.66698 7.49434C5.16698 7.59434 5.16698 7.19433 5.36698 6.99434C5.36698 6.49434 5.06698 6.39434 4.76698 6.19434C4.46698 5.99434 4.26698 5.69433 4.06698 5.49434C4.06698 4.69433 4.06698 3.79433 4.16698 3.09433C4.26698 3.09433 4.26698 3.09434 4.26698 3.19434C4.46698 3.59434 4.86698 3.99434 5.06698 4.39434C5.56698 4.79434 5.96698 5.29434 6.66698 5.49434C7.16698 5.89434 7.76698 6.09434 8.26698 6.49434C8.86698 6.79434 9.46698 7.09434 9.96698 7.39434C10.667 7.59434 11.067 8.09434 11.967 7.99434C12.167 7.89434 12.367 7.79434 12.567 7.69434C12.867 7.19434 12.467 6.59433 12.667 6.09433C12.967 5.39433 13.467 5.09433 13.967 4.59433C14.267 4.39433 14.567 4.29433 14.767 4.09433C15.067 3.99433 15.467 3.89434 15.767 3.69434C16.167 3.69434 16.467 3.59433 16.767 3.59433H18.067C18.267 3.69433 18.567 3.69434 18.767 3.69434C18.967 3.79434 19.167 3.99433 19.467 4.09433C20.267 4.79433 20.767 5.79433 20.867 7.09433C20.867 7.39433 20.967 7.79434 20.967 8.39434ZM21.267 2.79433C21.167 3.09433 21.067 3.49433 20.667 3.59433C20.667 3.49433 20.567 3.49434 20.567 3.39434C20.567 3.19434 20.767 3.19433 20.867 3.09433C20.967 2.99433 21.067 2.79433 21.267 2.79433C21.267 2.69433 21.367 2.79433 21.267 2.79433ZM15.767 5.79433C15.967 5.89433 16.067 6.09434 16.267 6.19434C16.367 6.39434 16.567 6.49433 16.867 6.59433C16.867 6.39433 17.167 6.59434 17.267 6.39434C17.467 6.39434 17.467 6.19433 17.567 6.09433C17.567 5.59433 17.467 5.09433 17.167 4.79433C16.467 4.29433 15.467 4.79433 15.767 5.79433Z" fill="currentColor"/>
</svg>
