<svg xmlns="http://www.w3.org/2000/svg" xmlns:xlink="http://www.w3.org/1999/xlink"><symbol id="facebook" viewBox="0 0 16 30">
<path d="M12.4445 6.03687C13.4434 6.03687 14.4424 6.03688 15.1416 5.72439C15.5412 4.89108 15.741 3.74529 15.741 2.5995C15.5412 2.5995 15.6411 2.28701 15.5412 2.18285C15.5412 1.97452 15.2415 1.97452 15.2415 1.76619C14.9418 1.55787 14.742 1.34954 14.5422 1.14122C13.843 0.932891 13.1437 0.828728 12.3446 0.620402C11.5454 0.620402 10.4466 0.516237 9.74736 0.724563C7.15013 0.724563 5.75162 1.87036 4.45301 3.22447C4.45301 3.32864 4.45301 3.4328 4.35311 3.4328C3.75375 5.09941 4.25322 7.18266 4.15333 9.26592C4.25322 9.68258 4.25322 10.3076 4.35311 10.7242C3.35418 11.0367 2.15546 11.1409 0.956737 11.245C0.657057 11.5575 0.756949 12.3908 0.756949 13.0158C0.856843 13.6408 1.05663 14.1616 1.15652 14.6824C1.35631 14.8907 1.75588 15.099 1.95567 15.2032C2.05557 15.2032 2.05556 15.3074 2.05556 15.3074C2.55503 15.6199 3.55396 15.3074 4.35311 15.4115C4.25322 17.4948 4.65279 19.4739 4.35311 21.3488C4.35311 21.6613 4.65279 21.7655 4.5529 22.1821C4.5529 23.2238 4.45301 24.2654 4.75269 24.9945C4.45301 25.5153 4.25322 26.0362 4.35311 26.8695C4.45301 26.8695 4.45301 27.0778 4.45301 27.1819C4.35311 27.7028 5.05237 27.3903 4.95248 27.9111C5.15226 28.4319 4.5529 28.1194 4.5529 28.4319V29.3694C5.05237 29.6819 6.0513 29.5777 6.85045 29.5777C7.74949 29.161 9.04811 29.0569 9.64747 28.3277C10.1469 28.5361 10.5465 28.3277 10.8462 28.1194C10.8462 27.8069 11.1459 27.8069 11.046 27.3903C11.046 27.0778 10.8462 26.8695 10.9461 26.4528V23.4321C10.7463 21.0363 10.9461 18.3281 10.6464 15.9323C11.5454 15.8282 12.5444 15.8282 13.2436 15.5157C13.6432 14.9949 13.6432 14.2657 13.7431 13.5366C13.9429 13.3283 13.9429 12.9116 13.9429 12.495C14.1427 12.2867 14.0428 11.7658 14.0428 11.3492C13.9429 10.7242 13.843 9.99507 13.2436 9.8909C12.3446 9.68258 11.2458 10.5159 10.2468 10.2034C10.2468 9.0576 9.94715 7.80764 10.2468 6.66185C11.046 6.45352 11.7452 6.2452 12.4445 6.03687ZM8.64853 11.0367C8.74843 11.3492 8.94822 11.5575 9.04811 11.7658C9.148 11.7658 9.24789 11.7658 9.24789 11.87C10.4466 11.9742 11.4455 11.7658 12.3446 11.5575C12.3446 12.5991 12.0449 13.3283 11.8451 14.1616C11.1459 14.1616 10.3467 14.4741 9.84725 14.3699C9.54757 14.5782 9.44768 14.8907 9.24789 15.099C9.24789 15.5157 9.34779 15.6199 9.24789 15.9323C9.04811 16.0365 9.148 16.5573 9.04811 16.7657V18.3281C9.148 18.6406 8.94821 18.6406 8.94821 18.8489V22.4946C8.84832 22.8071 9.04811 22.8071 9.04811 23.0154V26.1403C9.148 26.4528 8.94821 26.9736 9.148 27.0778C9.04811 27.4944 8.74842 27.0778 8.34885 27.1819C7.84938 27.2861 7.44981 27.5986 6.85045 27.5986C6.95034 27.1819 7.15013 26.9736 7.15013 26.4528C7.15013 26.0362 6.75056 26.1403 6.65066 25.932C6.85045 25.307 7.25002 24.7862 7.34992 24.0571C7.5497 23.5362 8.04917 22.7029 7.6496 22.1821C7.15013 22.078 7.15013 22.4946 6.85045 22.5988C6.85045 22.7029 6.85045 22.8071 6.75056 22.8071C6.75056 22.9113 6.75056 23.0154 6.65066 23.0154C6.65066 23.1196 6.45088 23.1196 6.65066 23.0154C6.65066 22.9113 6.65066 22.8071 6.75056 22.8071C6.75056 22.7029 6.75056 22.5988 6.85045 22.5988V22.2863C7.25002 21.6613 7.54971 21.0363 7.6496 20.203C7.84939 19.8905 7.94928 19.4739 8.04917 19.1614C8.24896 18.8489 8.34885 18.2239 8.14907 17.9114C7.6496 17.9114 7.34992 18.2239 7.25002 18.6406C6.95034 18.4323 7.44981 18.2239 7.34992 17.9114C7.44981 17.7031 7.54971 17.2865 7.6496 17.0781C7.84939 16.6615 8.24896 15.724 7.6496 15.4115C7.25003 15.4115 7.05024 15.6199 6.95034 15.9323C6.75056 16.1407 6.55077 16.349 6.45088 16.6615C6.0513 16.5573 6.35098 15.9324 6.25109 15.5157C6.1512 14.9949 6.35098 14.5782 6.25109 14.2657C5.65173 13.4324 4.25322 14.1616 3.0545 13.9533C2.9546 13.6408 2.85471 12.9116 2.95461 12.7033C3.95354 12.5991 5.45194 12.9116 6.1512 12.495C6.1512 12.3908 6.1512 12.2866 6.25109 12.2866C6.35098 11.5575 5.95141 11.245 5.75162 10.8284C5.95141 9.99506 5.75162 8.74511 5.85151 7.70348C6.0513 7.59932 6.15119 7.28683 6.35098 7.0785C6.45087 6.03687 7.05024 5.51606 7.05024 4.47443C6.75056 4.47443 6.45088 4.37027 6.45088 4.68276C6.1512 4.57859 6.0513 5.20357 5.95141 4.89108C5.85152 4.37027 6.1512 4.2661 6.25109 3.84945C6.85045 3.4328 7.44981 3.01615 8.14907 2.5995C9.84725 2.39117 12.7442 2.18284 14.2426 2.80782C14.3425 3.4328 13.9429 3.74529 14.0428 4.37027H12.5444C11.4456 4.57859 10.5465 5.09941 9.54758 5.41189C9.34779 5.51606 9.2479 5.72438 9.04811 5.82855C9.04811 6.2452 8.84832 6.45353 8.74843 6.87018C8.44875 8.32846 8.64853 9.57841 8.64853 11.0367Z" fill="currentColor"/>
</symbol><symbol id="instagram" viewBox="0 0 22 22">
<path d="M21.8577 12.2C21.8577 9.8 21.5577 7.4 21.5577 5.1C21.5577 4.3 21.4577 3.6 21.3577 2.8C21.2577 2.5 21.2577 2.1 21.1577 1.7C20.8577 1.5 20.9577 1.1 20.6577 0.900002C20.2577 0.700002 19.4577 0.800001 18.9577 0.700001C18.2577 0.700001 17.6577 0.6 17.0577 0.5C15.1577 0.4 13.0577 0.400002 11.0577 0.400002C9.05774 0.400002 7.05774 0.3 5.35774 0H3.15774C3.05774 0 3.05774 0.100002 2.95774 0.100002C2.35774 0.100002 1.85774 0.300002 1.35774 0.400002C1.15774 0.500002 0.957737 0.600001 0.657737 0.700001C0.557737 0.900001 0.157735 0.800002 0.057735 1.1C-0.142265 1.3 0.257735 1.6 0.057735 1.7V2.6C0.257735 2.7 0.0577373 3.2 0.157737 3.4V4.4C0.157737 5.7 0.257736 6.8 0.257736 8.1C0.757736 10.9 0.657738 14.6 0.357738 17.5C0.557738 18.1 0.757738 18.6 0.857738 19.2C1.15774 19.7 1.15774 20.3 1.55774 20.7C2.05774 20.9 2.75774 20.9 3.45774 20.9C3.85774 21 4.15773 21.2 4.55773 21.2C7.35773 21 10.0577 21 12.9577 21C15.6577 21.2 18.7577 21.2 21.2577 20.8C21.4577 20.7 21.3577 20.3 21.4577 20C21.3577 19.6 21.6577 19.6 21.6577 19.2C21.8577 17.1 21.8577 14.7 21.8577 12.2ZM8.85774 6C9.65774 5.8 10.3577 5.7 11.2577 5.7C11.9577 5.8 12.5577 6 13.1577 6.2C13.2577 6.4 12.9577 6.7 13.3577 6.9C13.4577 6.9 13.4577 6.9 13.5577 7C13.9577 7 14.3577 7.2 14.6577 7.4C15.1577 7.5 15.1577 7.9 15.7577 7.8C15.6577 8 15.6577 8.3 15.6577 8.6C15.9577 9.8 16.1577 11.4 15.9577 12.9C15.7577 13.1 15.7577 13.3 15.6577 13.6C15.3577 13.9 15.1577 14.4 14.8577 14.7C14.7577 14.9 14.5577 15.1 14.3577 15.2C14.2577 15.4 14.1577 15.7 13.8577 15.7C13.5577 15.9 13.2577 15.7 13.0577 15.6C12.6577 15.8 12.1577 15.9 11.8577 16.2C11.0577 16.1 10.2577 16 9.45774 15.9C9.25774 15.8 8.95774 15.6 8.65774 15.6C8.45774 15.4 8.15774 15.2 7.85774 15.1C7.75774 15 7.55774 15 7.35774 14.9C7.15774 14.9 7.15774 14.7 6.85774 14.7C6.75774 14.3 6.45774 14.1 6.35774 13.6C6.15774 13.3 6.05774 12.8 5.85774 12.4C5.85774 11 5.95774 9.7 6.25774 8.6C6.55774 8 7.05774 7.5 7.35774 6.9C7.55774 6.9 7.75774 6.8 7.75774 6.6C8.05774 6.7 8.15774 6.5 8.45774 6.5C8.65774 6.5 8.65774 6.2 8.85774 6ZM7.15774 3.3C7.05774 3 7.05773 2.6 7.05773 2.2C7.05773 1.9 7.35774 1.9 7.35774 1.7C7.35774 1.6 7.25774 1.6 7.15774 1.6C7.25774 1.5 7.85774 1.5 7.95774 1.6C8.05774 2.1 7.55774 2.1 7.45774 2.3C7.45774 2.5 7.75774 2.3 7.95774 2.4C7.95774 3.3 7.85774 3.9 7.95774 4.6H7.45774C7.45774 4.8 7.65774 4.8 7.95774 4.8C7.85774 5.1 8.05774 5.2 8.05774 5.4C7.85774 5.6 7.35774 5.4 6.95774 5.5C6.95774 4.9 7.25774 4.1 7.15774 3.3ZM6.45774 1.7C6.55774 1.7 6.55774 1.7 6.65774 1.8C6.85774 2.1 6.65773 2.5 6.55773 2.7C6.35773 2.5 6.55774 2 6.45774 1.7ZM6.65774 3.5C6.55774 3.4 6.45774 3.3 6.45774 3C6.65774 3.1 6.65774 3.3 6.65774 3.5ZM6.65774 4.9C6.55774 5 6.55773 4.9 6.55773 4.7C6.65773 4.6 6.65774 4.8 6.65774 4.9ZM6.45774 5.1C6.65774 5.1 6.55774 5.3 6.65774 5.3C6.65774 5.5 6.35774 5.5 6.25774 5.4C6.35774 5.3 6.45774 5.2 6.45774 5.1ZM4.15774 3.9C4.15774 3.8 4.15773 3.7 4.05773 3.7C3.95773 3 4.15773 2.3 4.05773 1.7C4.35773 1.5 4.85774 1.7 5.15774 1.6V2.7C5.05774 2.8 4.95774 2.8 4.75774 2.8C4.65774 3.1 5.05774 2.9 5.15774 3.1C5.15774 4 5.05774 4.9 5.35774 5.5C4.75774 5.4 4.45774 5.6 3.95774 5.6C4.05774 5 3.95774 4.2 4.45774 4C4.45774 3.9 4.15774 4 4.15774 3.9ZM3.65774 3.9C3.45774 3.9 3.45773 3.4 3.55773 3.3C3.85773 3.3 3.75774 3.8 3.65774 3.9ZM3.45774 4.9C3.55774 4.6 3.45773 4.6 3.55773 4.2C3.75773 4.2 3.75774 5 3.45774 4.9ZM3.65774 2.8C3.35774 2.9 3.35774 2.5 3.45774 2.4C3.75774 2.4 3.85774 2.7 3.65774 2.8ZM3.65774 1.7C3.65774 1.9 3.55773 1.9 3.55773 2C3.35773 2 3.45774 1.8 3.35774 1.8C3.45774 1.7 3.55774 1.7 3.65774 1.7ZM3.45774 5.4C3.55774 5.4 3.55774 5.7 3.35774 5.6C3.45774 5.6 3.45774 5.5 3.45774 5.4ZM2.75774 1.7C2.75774 2 2.35774 2 2.35774 1.7H2.75774ZM1.75774 1.8C1.75774 2 1.45774 2 1.35774 2.2C1.15774 2 1.45774 1.7 1.75774 1.8ZM1.35774 2.5C1.55774 2.3 1.85773 2.1 2.05773 1.9C2.05773 1.8 2.15774 1.8 2.15774 1.7H2.35774C2.45774 2.1 2.05773 2 2.05773 2.2C2.05773 2.3 1.95774 2.3 1.95774 2.4C1.95774 2.7 2.05773 3 2.05773 3.4C1.75773 3.4 1.75774 3.7 1.45774 3.6C1.45774 3.2 1.25774 3 1.35774 2.5ZM1.45774 5.8V4.2C1.65774 4 1.85773 3.8 2.05773 3.7C2.35773 4.2 2.25773 5.1 2.55773 5.6C2.15773 5.7 1.75774 5.7 1.45774 5.8ZM19.6577 16.9C19.5577 17.9 19.4577 18.9 19.2577 19.7C16.3577 19.8 13.2577 19.7 10.3577 19.9C10.1577 19.9 10.0577 19.9 10.1577 19.7C9.85774 19.7 9.85774 19.9 9.65774 19.9C9.85774 19.6 10.0577 19 9.85774 18.6C9.05774 18.6 9.05774 19.4 8.75774 19.9C8.05774 19.8 7.65774 20 6.95774 20C7.15774 19.3 7.65774 19 7.85774 18.3C7.45774 17.8 6.85774 18.4 6.65774 18.8C6.45774 19.3 6.05774 19.6 5.85774 20.1H4.85774C5.05774 19.6 5.35774 19.2 5.65774 18.7C5.85774 18.2 6.25774 18 6.35774 17.3C6.15774 17 5.95774 17.3 5.65774 17.3C5.55774 17.5 5.35774 17.6 5.25774 17.8C5.05774 18.2 4.75773 18.5 4.55773 18.9C4.35773 19.1 4.25773 18.9 4.05773 19.1C3.65773 19.4 3.45773 19.8 3.05773 20.1C2.85773 20 3.05774 19.7 3.25774 19.7C3.25774 19.5 3.15774 19.2 3.35774 19.1C3.45774 18.7 3.55774 18.5 3.75774 18.2C3.85774 17.5 4.25774 17 4.45774 16.3C3.85774 16.4 3.75774 16.9 3.45774 17.3C3.25774 17.7 2.95774 18.1 2.75774 18.6C2.55774 18.5 2.75774 18 2.65774 17.8C2.75774 17.2 2.95773 16.7 3.05773 16.1C3.15773 15.9 3.25774 15.6 3.25774 15.3C3.45774 15.1 3.25774 14.7 3.15774 14.5C2.95774 14.5 2.75774 14.6 2.65774 14.8C2.45774 14.8 2.45774 15.3 2.35774 15.1C2.35774 12.5 1.85774 10.3 1.85774 7.7C1.85774 7.4 1.65774 7.3 1.65774 7C3.25774 7 4.75774 7.1 6.45774 7.2C6.35774 7.3 6.25774 7.5 6.15774 7.6C6.05774 7.7 5.95774 7.8 5.75774 7.9C5.15774 9.6 4.75774 11.9 5.15774 14.1C5.35774 14.7 5.75774 15.1 6.15774 15.5C7.05774 16 7.75774 16.6 8.65774 17.2C10.3577 17.6 12.4577 17.6 14.1577 17.2C14.3577 17.1 14.6577 17 14.8577 16.8C16.2577 15.6 17.6577 14.3 17.8577 11.9V10.5C17.6577 8.9 17.1577 7.6 16.1577 6.9C16.4577 6.7 17.2577 6.9 17.8577 7C18.0577 7 18.2577 7 18.5577 7C18.9577 7 19.4577 6.9 19.9577 7C20.0577 7.2 20.0577 7.5 20.1577 7.8C20.0577 9.5 19.9577 11.1 19.9577 12.9C20.0577 13.4 20.0577 13.9 20.1577 14.3C19.9577 15.1 19.8577 16 19.6577 16.9ZM20.0577 5.7C19.4577 5.6 18.8577 5.4 18.1577 5.3C18.2577 5 18.9577 5.3 19.1577 5.1C19.5577 4.9 19.4577 4.2 19.4577 3.6C19.4577 3.3 19.5577 3 19.5577 2.5C19.1577 1.5 17.7577 2.1 16.6577 2C16.4577 2.7 16.1577 3.8 16.3577 4.7C16.5577 5.2 17.3577 5 17.8577 5.2C17.7577 5.5 17.1577 5.3 16.8577 5.3C16.5577 5.2 16.1577 5.2 15.8577 5.1C13.5577 5.2 11.5577 5.1 9.35774 5.3C9.45774 4.1 9.45774 2.8 9.25774 1.7H12.3577C12.0577 2.1 11.4577 2.2 11.0577 2.5C10.6577 2.7 10.1577 3 9.95774 3.4C10.1577 3.5 10.4577 3.2 10.7577 3C11.1577 2.9 11.2577 2.6 11.5577 2.5C11.9577 2.1 12.6577 1.9 13.2577 1.6C13.6577 1.6 13.9577 1.6 14.2577 1.7C15.5577 1.7 16.7577 1.8 18.0577 1.8C18.6577 1.9 19.5577 1.9 20.0577 2.1C20.1577 2.4 20.2577 2.7 20.3577 3C20.2577 4 20.0577 4.8 20.0577 5.7ZM14.1577 2C14.1577 1.9 14.2577 1.9 14.1577 2ZM14.1577 2C13.6577 2.2 13.1577 2.3 12.7577 2.7C13.2577 2.5 13.8577 2.4 14.1577 2ZM15.2577 2.6C15.2577 2.5 15.3577 2.5 15.2577 2.6ZM13.4577 3.5C14.1577 3.3 14.6577 2.9 15.1577 2.6C14.7577 2.6 14.5577 2.9 14.1577 3C14.0577 3.2 13.6577 3.2 13.4577 3.5ZM12.7577 2.7C12.8577 2.8 12.6577 2.7 12.7577 2.7ZM12.1577 3.3C12.1577 3.2 12.2577 3.2 12.1577 3.3ZM12.0577 3.4C12.1577 3.3 12.1577 3.4 12.0577 3.4C12.0577 3.3 12.0577 3.3 12.0577 3.4ZM11.9577 3.4C12.0577 3.4 12.0577 3.4 11.9577 3.4ZM11.1577 4C11.4577 3.9 11.7577 3.7 11.9577 3.4C11.6577 3.6 11.3577 3.8 11.1577 4ZM13.4577 5C13.9577 5 14.1577 4.6 14.6577 4.5C14.9577 4.2 15.4577 4.1 15.6577 3.7C15.0577 3.7 14.8577 4.1 14.4577 4.2C14.1577 4.6 13.6577 4.7 13.4577 5ZM11.1577 4C11.1577 4.3 10.8577 4 11.1577 4ZM10.5577 4.4C10.7577 4.4 10.6577 4.4 10.5577 4.4ZM13.4577 5C13.4577 5.1 13.2577 5.1 13.4577 5ZM12.2577 6.8C12.0577 6.6 11.5577 6.6 11.2577 6.4C10.5577 6.4 10.0577 6.5 9.55774 6.6C9.25774 6.8 8.95774 6.9 8.65774 7.1C8.35774 7.3 8.25774 7.5 7.85774 7.6C7.65774 7.8 7.45774 8.1 7.15774 8.2C7.15774 8.4 6.95774 8.5 6.85774 8.6C6.75774 8.7 6.75774 8.9 6.65774 9C6.65774 9.1 6.65773 9.3 6.55773 9.3C6.65773 10.8 6.85774 12.2 7.25774 13.5C7.55774 14.1 8.25774 14.3 8.65774 14.8C9.25774 15.1 9.95774 15.2 10.7577 15.3C11.0577 15.2 11.3577 15.2 11.6577 15.2C12.8577 15 13.7577 14.5 14.4577 13.8C14.5577 13.5 14.7577 13.3 14.9577 13.1C14.6577 12.4 15.2577 12 15.4577 11.5C15.4577 10.2 15.2577 9 14.8577 8.1C14.5577 7.5 13.9577 7.3 13.4577 7C13.3577 7 13.2577 7 13.2577 6.9C13.0577 6.8 12.5577 6.7 12.2577 6.8ZM8.85774 11.2C8.75774 11.1 8.75774 11 8.65774 10.8C8.95774 10.7 8.85774 11 8.85774 11.2ZM8.95774 11.5C9.05774 11.5 8.95774 11.4 8.95774 11.5C8.95774 11.6 8.95774 11.7 8.95774 11.5ZM9.35774 9.4C9.45774 9.4 9.35774 9.3 9.35774 9.4C9.35774 9.5 9.45774 9.5 9.35774 9.4ZM11.0577 7.3C10.8577 7.6 11.0577 7.9 11.1577 8.1C10.8577 8.1 10.5577 7.3 11.0577 7.3ZM11.4577 11.2C11.4577 11.3 11.5577 11.2 11.4577 11.2ZM12.1577 14.1C12.1577 14 12.2577 14.1 12.3577 14.1C12.3577 14.2 12.1577 14.2 12.1577 14.1ZM14.3577 11.6C14.1577 11.5 14.2577 11.8 13.9577 11.8C14.0577 11.6 14.0577 11.5 14.1577 11.3C14.3577 11.3 14.4577 11.4 14.3577 11.6ZM13.2577 7.8C13.4577 7.9 13.6577 8 13.8577 8.2C13.9577 8.4 14.0577 8.6 14.2577 8.7C14.3577 9.5 14.4577 10.2 14.4577 11.1C14.1577 11.2 14.0577 11.4 13.7577 11.5C12.9577 11.5 12.3577 11.3 11.8577 11C11.6577 10.7 11.4577 10.5 11.3577 10.2V9.1C11.5577 8.9 11.6577 8.7 11.8577 8.5C12.0577 8.4 12.3577 8.3 12.3577 7.9C12.3577 7.8 12.2577 7.8 12.2577 7.7C12.4577 7.7 12.4577 7.9 12.6577 7.9C12.8577 7.9 12.9577 7.7 13.2577 7.8Z" fill="currentColor"/>
</symbol><symbol id="logo-footer" viewBox="0 0 102 34">
  <g fill="currentColor">
    <path d="M19.2204 21.3813C19.1204 18.6962 18.7204 16.1105 18.7204 13.4255C18.7204 11.2376 19.1204 9.04976 18.3204 6.96135C18.3204 6.76246 18.4204 6.46411 18.4204 6.26522C18.6204 5.27074 15.1204 5.76798 14.6204 6.76246C14.3204 7.0608 14.1204 7.35914 14.2204 7.75694C14.2204 7.85638 14.3204 7.95583 14.3204 8.05528C13.6204 11.2376 12.7204 14.3205 11.7204 17.4034C11.3204 18.5967 10.8204 19.6907 10.4204 20.884C9.82041 19.7901 9.22041 18.6962 8.82041 17.5028C7.42041 14.1216 6.22041 10.6409 4.52041 7.35914C4.72041 5.86743 1.32041 5.96688 0.620408 7.35914C-0.179592 9.04976 -0.0795918 10.7404 0.220408 12.5304C0.520408 14.5194 0.620408 16.5083 0.620408 18.5967C0.620408 22.5746 1.02041 26.4531 1.02041 30.431C0.620408 30.8288 0.520408 31.326 0.920408 31.8233C1.12041 32.0222 1.32041 32.2211 1.52041 32.3205C2.52041 33.0167 5.12041 32.42 5.12041 31.0277C5.12041 26.9503 4.82041 22.873 4.72041 18.6962C4.72041 18.2984 4.72041 17.9006 4.72041 17.5028C4.82041 17.6023 4.82041 17.8012 4.92041 17.9006C5.52041 19.4918 6.22041 21.0829 7.12041 22.5746C8.02041 24.0664 8.42041 25.6575 8.92041 27.2487C8.72041 27.4476 8.62041 27.7459 8.72041 27.9448C8.72041 28.1437 8.82041 28.2432 9.02041 28.3426C9.62041 28.8399 10.8204 28.641 11.5204 28.3426C11.8204 28.2432 12.1204 28.0443 12.3204 27.9448C12.6204 27.7459 13.2204 27.2487 13.0204 26.7514C13.0204 26.652 12.9204 26.5526 12.9204 26.4531C13.4204 25.1603 13.6204 23.8675 13.9204 22.5746C14.2204 21.1824 14.7204 19.7901 15.2204 18.4973C15.3204 19.094 15.3204 19.6907 15.4204 20.3868C15.6204 22.9724 15.4204 25.4586 15.4204 27.9448C15.4204 28.7404 15.5204 29.536 15.6204 30.431C15.7204 30.7294 16.0204 32.2211 15.9204 32.3205C15.1204 32.8178 15.3204 33.4144 16.1204 33.6133C17.0204 33.8122 18.2204 33.5139 18.9204 32.9172C20.1204 31.8233 19.5204 30.1327 19.3204 28.7404C18.8204 26.3537 19.3204 23.768 19.2204 21.3813Z"/>
    <path d="M27.6201 22.0776C27.5201 20.0887 26.8201 18.1992 26.8201 16.2102C26.8201 13.9229 27.0201 11.6356 26.6201 9.34833C26.5201 8.65219 22.5201 9.44778 22.7201 10.3428C23.0201 12.4312 22.9201 14.5196 22.9201 16.7075C22.9201 18.6964 23.4201 20.5859 23.6201 22.5749C23.9201 24.6633 23.5201 26.7517 23.7201 28.7406C23.8201 29.7351 24.5201 31.4257 23.8201 32.3208C23.4201 32.818 25.3201 32.6191 25.4201 32.6191C26.2201 32.5196 27.2201 32.2213 27.7201 31.6246C28.4201 30.829 27.9201 29.2379 27.8201 28.2434C27.5201 26.2544 27.7201 24.0666 27.6201 22.0776Z"/>
    <path d="M43.9205 18.7956C41.8205 16.0111 38.0205 18.0001 35.3205 17.3039C33.9205 16.9061 33.9205 15.0166 33.9205 13.9227C33.9205 12.5304 33.8205 11.2376 33.6205 9.84534C33.5205 8.75142 33.6205 7.75694 34.3205 6.96136C34.4205 6.86191 35.2205 6.66302 35.1205 6.66302C35.5205 6.56357 35.8205 6.56357 36.2205 6.56357C37.7205 6.46412 40.8205 6.76247 40.2205 9.04976C39.9205 10.0442 43.8205 9.44755 44.1205 8.45308C45.3205 3.87848 36.8205 4.77351 34.4205 5.3702C32.2205 5.96688 29.8205 7.16026 29.6205 9.7459C29.5205 10.9393 29.9205 12.1326 29.9205 13.326C30.0205 14.7183 29.7205 16.1106 30.2205 17.4034C31.3205 20.3868 35.7205 18.9945 38.0205 19.094C41.8205 19.3923 40.7205 24.5636 40.7205 26.9504C40.7205 28.2432 41.9205 30.3316 40.9205 31.4255C40.3205 32.1216 38.9205 32.1216 38.1205 32.2211C37.3205 32.3205 35.9205 32.5194 35.4205 31.7238C34.4205 30.3316 35.5205 27.9448 35.3205 26.3537C35.2205 25.4586 31.2205 26.2542 31.4205 27.3481C31.7205 29.9338 30.0205 33.4145 33.8205 33.9117C36.2205 34.21 39.0205 33.7128 41.3205 33.0167C42.5205 32.6189 43.6205 32.1216 44.5205 31.2266C45.5205 30.3316 45.2205 28.9393 44.9205 27.7459C44.4205 24.6631 45.8205 21.2818 43.9205 18.7956Z"/>
    <path d="M61.3201 18.5966C61.2201 14.8176 60.6201 11.1381 60.6201 7.35905C60.6201 5.37009 56.6201 6.06623 56.6201 7.65739C56.6201 11.2375 57.1201 14.8176 57.3201 18.3977C57.3201 18.4972 57.3201 18.4972 57.3201 18.5966C55.4201 18.5966 53.4201 18.7955 51.4201 18.7955C51.6201 14.2209 50.8201 9.64634 51.0201 4.9723C51.0201 4.37561 47.1201 4.87285 47.1201 5.96678C46.9201 10.4419 47.7201 14.8176 47.6201 19.2928C47.5201 21.3812 47.4201 23.569 47.3201 25.6574C47.3201 26.7514 47.5201 27.8453 47.6201 28.9392C47.7201 29.9337 48.1201 31.2265 47.8201 32.221C47.6201 33.0166 51.4201 32.5193 51.7201 31.5248C52.2201 29.7348 51.5201 27.5469 51.3201 25.7569C51.1201 24.0663 51.3201 22.2762 51.4201 20.5856C53.4201 20.4861 55.5201 20.2873 57.5201 20.5856C57.6201 21.9779 57.7201 23.3701 57.8201 24.663C57.9201 25.8563 58.0201 26.9502 58.0201 28.1436C58.0201 29.1381 58.1201 30.6298 57.8201 31.6243C57.0201 33.7127 60.9201 33.5138 61.5201 32.0221C62.2201 30.1326 62.0201 27.8453 61.9201 25.8563C61.7201 23.3701 61.3201 20.9834 61.3201 18.5966Z"/>
    <path d="M78.22 22.9729C77.32 20.1884 75.82 17.8016 74.62 15.216C75.62 13.3265 76.62 11.3375 77.52 9.34855C78.32 7.55849 78.92 5.56954 80.62 4.27672C81.22 3.87892 81.22 3.38169 80.32 3.28224C79.42 3.18279 78.22 3.48113 77.52 3.97837C76.12 5.27119 75.12 6.66346 74.42 8.35407C73.52 10.4425 72.52 12.4314 71.52 14.4204C71.42 14.5198 71.42 14.7187 71.32 14.8182C70.82 15.1165 70.52 15.6138 70.72 16.111C69.92 17.7022 69.12 19.1939 68.22 20.6856C67.92 15.216 67.22 9.64689 67.02 4.17727C67.02 2.88445 63.02 3.68003 63.12 5.17174C63.32 12.0336 64.32 18.7961 64.42 25.658C64.42 25.658 64.42 25.658 64.42 25.7574C64.12 26.0558 64.22 26.2547 64.52 26.3541C64.52 28.1442 64.42 29.8348 64.32 31.6248C63.82 32.321 64.82 32.7188 65.42 32.7188H65.52C66.22 32.7188 68.12 32.4204 68.22 31.3265C68.42 29.2381 68.52 27.1497 68.42 25.0613C70.02 23.3707 71.32 21.4812 72.52 19.4922C73.32 20.9839 74.02 22.4756 74.52 24.0668C75.42 26.7519 76.82 29.3375 77.62 32.0226C78.12 33.8127 82.12 32.7188 81.52 31.0282C80.52 28.2436 79.12 25.7574 78.22 22.9729Z"/>
    <path d="M101.721 18.3983C101.521 17.6027 100.321 17.6027 99.4207 17.6027C99.4207 17.3043 99.4207 16.9066 99.4207 16.6082C99.3207 13.9231 99.2207 11.238 99.0207 8.6524C98.8207 6.1662 97.4207 5.37062 95.0207 5.47007C92.6207 5.56952 89.8207 5.96731 87.5207 6.86234C84.9207 7.85682 83.4207 9.74632 82.9207 12.5309C82.4207 15.5143 83.1207 18.6966 83.3207 21.68C83.5207 25.1607 83.4207 28.6414 83.4207 32.1221C83.4207 32.7187 87.3207 32.1221 87.3207 31.1276C87.3207 28.343 87.3207 25.5585 87.3207 22.8734C87.3207 22.0778 87.2207 21.2823 87.2207 20.4867C88.6207 19.89 90.9207 20.4867 92.3207 20.5861C93.4207 20.6856 94.5207 20.3872 95.5207 20.2878C95.5207 22.5751 95.6207 24.8624 95.7207 27.1497C95.7207 28.343 96.2207 30.6303 95.3207 31.6248C94.9207 32.1221 96.8207 31.9232 96.9207 31.9232C97.7207 31.8237 98.7207 31.5254 99.2207 30.9287C100.121 29.8348 99.7207 27.1497 99.6207 25.8569C99.5207 23.9673 99.5207 22.0778 99.5207 20.1883C100.621 19.9894 101.921 19.2933 101.721 18.3983ZM87.1207 18.2988C87.0207 17.1055 86.9207 15.8126 86.8207 14.6193C86.6207 12.332 86.9207 9.05019 89.1207 7.65792C89.7207 7.26013 90.8207 7.35958 91.5207 7.26013C92.5207 7.06123 93.5207 6.86234 94.3207 7.45902C95.5207 8.25461 95.2207 11.1386 95.2207 12.332C95.2207 14.3209 95.4207 16.3099 95.5207 18.2988C94.9207 18.3983 94.4207 18.3983 93.8207 18.3983C91.5207 18.1994 89.2207 17.8016 87.1207 18.2988Z"/>
    <path d="M24.2204 6.663C24.7204 6.56355 25.2204 6.4641 25.7204 6.16576C25.8204 6.06631 25.9204 5.96686 25.9204 5.96686C26.4204 5.66852 26.9204 5.17128 26.6204 4.57459C26.1204 3.48067 26.2204 2.38675 26.2204 1.19337C26.2204 0.198895 25.2204 0 24.4204 0C23.7204 0.0994477 22.2204 0.596686 22.2204 1.49172C22.2204 2.48619 22.1204 3.48067 22.3204 4.47515C22.3204 4.57459 22.2204 4.67404 22.2204 4.87294C22.1204 5.07183 22.2204 5.27073 22.3204 5.46962V5.56907C22.3204 5.66852 22.3204 5.76797 22.3204 5.86742C22.4204 6.06631 22.5204 6.26521 22.7204 6.36465C23.3204 6.663 23.8204 6.663 24.2204 6.663Z"/>
  </g>
</symbol><symbol id="mail" viewBox="0 0 32 21">
<path opacity="0.2" d="M28 0H4C1.8 0 0 1.8 0 4V17C0 19.2 1.8 21 4 21H28C30.2 21 32 19.2 32 17V4C32 1.8 30.2 0 28 0ZM2 5.3L9 10.6L2 15.9V5.3ZM30 17C30 18.1 29.1 19 28 19H4C2.9 19 2 18.1 2 17L9.8 11.1L14.2 14.4C14.7 14.8 15.4 15 16 15C16.6 15 17.3 14.8 17.8 14.4L22.2 11.1L30 17ZM30 15.8L23 10.5L30 5.2V15.8ZM17.2 13.6C16.8 13.9 16.4 14 16 14C15.6 14 15.1 13.9 14.8 13.6L10.7 10.5L9.9 9.9L2 4C2 2.9 2.9 2 4 2H28C29.1 2 30 2.9 30 4L17.2 13.6Z" fill="black"/>
</symbol><symbol id="phone" viewBox="0 0 25 24">
<g opacity="0.2">
<path d="M17.4395 24C17.0363 24 16.7339 24 16.3306 24C11.3911 23.4074 7.7621 21.1358 5.14113 18.2717C2.52016 15.4075 0.403226 11.7532 0 6.7162C0 6.22237 0 5.82731 0 5.33349C0.100806 4.44461 0.504032 3.85202 1.10887 3.25943C1.71371 2.56808 2.72177 1.77796 3.62903 1.6792C4.33468 1.6792 5.44355 2.17302 5.84677 2.76561C6.25 3.25943 6.45161 4.34584 6.65323 5.13596C6.85484 6.02484 7.25806 7.11125 7.15726 7.90137C6.95565 9.08655 5.34274 9.58037 4.93952 10.4693C6.55242 14.1235 9.07258 16.889 12.5 18.6667C13.3065 18.1729 14.1129 16.7902 15.3226 16.7902C15.7258 16.7902 16.3306 16.9877 16.7339 17.0865C17.2379 17.1852 17.6411 17.3828 18.0444 17.5803C18.75 17.8766 20.0605 18.1729 20.4637 18.7655C20.8669 19.3581 21.1694 20.3457 21.0685 20.9383C20.7661 22.2222 18.6492 23.6049 17.4395 24Z" fill="black"/>
<path d="M12.6008 1.48147C18.5484 1.48147 23.4879 6.22217 23.4879 12.1481H25C25 5.43205 19.4556 0 12.6008 0V1.48147Z" fill="black"/>
<path d="M12.6008 9.18506V10.7653C13.4073 10.7653 14.0121 11.3579 14.0121 12.148H15.625C15.625 10.5678 14.3145 9.18506 12.6008 9.18506Z" fill="black"/>
<path d="M12.6008 6.12356C15.9274 6.12356 18.75 8.79021 18.75 12.1482H20.3629C20.3629 8.00009 16.9355 4.64209 12.7016 4.64209V6.12356H12.6008Z" fill="black"/>
</g>
</symbol><symbol id="twitter" viewBox="0 0 25 20">
<path d="M24.367 4.39434C24.167 3.99434 23.467 4.09434 22.967 3.99434H21.867C21.967 3.59434 22.167 3.39434 22.367 2.99434C22.467 2.59434 22.667 2.29434 22.567 1.69434C22.667 1.49434 22.767 1.29433 22.867 1.09433C22.967 0.994334 23.067 0.594337 22.967 0.394337C22.867 0.194337 22.667 0.194336 22.367 0.194336C22.267 0.194336 22.167 0.294334 22.167 0.294334C21.767 0.694334 21.367 1.29434 20.867 1.69434H20.767C20.667 1.69434 20.767 1.69433 20.667 1.79433C20.567 1.89433 20.367 1.99434 20.267 1.99434C19.967 2.19434 19.767 2.39434 19.367 2.49434C18.867 2.29434 18.167 2.19433 17.467 2.09433C16.267 2.19433 15.167 2.29433 14.467 2.79433C13.567 3.09433 12.967 3.79434 12.367 4.39434C12.367 4.69434 12.067 4.79433 11.967 5.09433C11.967 5.09433 11.967 5.19434 11.867 5.19434C11.867 5.39434 11.767 5.49434 11.767 5.69434C11.767 5.79434 11.967 6.09434 11.767 6.19434C10.967 6.09434 10.267 5.59434 9.66698 5.19434C8.96698 4.79434 8.16698 4.59433 7.56698 4.09433C6.86698 3.79433 6.26698 3.29433 5.76698 2.79433C5.56698 2.49433 5.26698 2.29434 5.06698 1.89434C4.66698 1.69434 4.86698 0.994335 4.36698 0.994335C4.06698 0.994335 4.06698 1.19434 3.96698 1.39434C3.86698 1.59434 3.56698 1.59434 3.56698 1.89434C3.56698 1.89434 3.56698 1.99434 3.46698 1.99434C3.26698 3.09434 2.96698 3.99433 2.96698 5.29433C3.06698 5.69433 3.26698 5.99433 3.56698 6.29433C3.16698 6.39433 2.86698 6.49433 2.66698 6.79433C2.56698 7.89433 3.06698 8.39433 3.36698 9.09433C3.46698 9.49433 3.76698 9.79433 3.96698 10.0943C3.96698 10.2943 4.16698 10.3943 4.26698 10.4943C4.26698 10.5943 4.36698 10.5943 4.36698 10.6943C4.36698 10.7943 4.66698 10.8943 4.46698 10.8943C4.06698 10.9943 3.46698 10.9943 3.16698 11.2943C3.06698 11.5943 3.06698 12.0943 3.16698 12.3943C3.16698 12.5943 3.46698 12.6943 3.46698 12.8943C3.96698 13.2943 4.56698 13.5943 5.06698 13.9943C5.66698 14.1943 6.26698 14.2943 6.96698 14.3943C6.86698 14.6943 6.66698 14.9943 6.36698 15.0943C5.56698 15.4943 4.56698 15.5943 3.66698 15.7943C3.06698 15.7943 2.66698 15.9943 2.06698 15.9943C1.76698 16.0943 1.16698 16.0943 0.96698 16.1943C0.86698 16.2943 0.86698 16.2943 0.76698 16.3943C0.66698 16.7943 0.866981 17.0943 1.16698 17.2943C1.16698 17.5943 1.36698 17.5943 1.56698 17.6943C1.66698 17.8943 1.86698 17.9943 1.96698 18.0943C2.46698 18.5943 3.26698 18.8943 3.86698 19.1943C4.66698 19.3943 5.46698 19.5943 6.36698 19.6943C7.26698 19.7943 8.26698 19.7943 9.16698 19.8943H10.167C10.667 19.9943 11.367 19.9943 12.067 19.9943C12.167 19.8943 12.367 19.8943 12.567 19.8943C13.067 19.5943 13.767 19.4943 14.167 19.1943C14.767 18.9943 15.167 18.5943 15.767 18.2943C16.667 17.4943 17.667 16.9943 18.267 15.8943C18.467 15.6943 18.667 15.4943 18.667 15.1943C18.967 14.9943 19.067 14.6943 19.267 14.4943C19.667 14.0943 19.967 13.5943 20.267 13.0943C20.567 12.5943 20.867 11.9943 21.167 11.4943C21.167 11.0943 21.467 10.9943 21.467 10.5943C21.667 10.3943 21.667 9.89434 21.867 9.69434C21.867 9.39434 21.867 9.29433 21.967 9.09433C21.967 7.79433 21.967 6.69434 21.667 5.69434C22.267 5.49434 22.867 5.39433 23.267 5.09433C24.067 5.39433 24.567 4.99434 24.367 4.39434ZM20.967 8.39434C20.767 9.29434 20.367 9.79434 19.967 10.3943C20.067 10.7943 19.867 10.8943 19.867 11.2943C19.667 11.5943 19.567 11.9943 19.467 12.2943C19.267 12.5943 19.167 12.8943 18.967 13.1943C18.567 13.6943 18.167 14.2943 17.767 14.7943C17.367 15.3943 16.867 15.7943 16.467 16.2943C16.067 16.7943 15.567 17.1943 15.067 17.5943C14.567 17.7943 14.167 17.9943 13.767 18.2943C13.567 18.3943 13.267 18.4943 13.067 18.5943C12.867 18.6943 12.567 18.6943 12.367 18.8943C11.267 18.9943 10.067 19.0943 8.76698 18.9943C7.76698 18.8943 6.66698 18.7943 5.76698 18.5943C4.86698 18.3943 4.26698 17.8943 3.46698 17.5943C3.66698 17.3943 4.06698 17.3943 4.46698 17.3943C4.46698 17.1943 4.86698 17.3943 4.86698 17.2943C5.16698 17.3943 5.16698 17.1943 5.36698 17.1943C5.96698 16.9943 6.56698 16.8943 7.06698 16.5943C7.36698 16.4943 7.46698 16.1943 7.76698 15.9943C7.76698 15.7943 7.86698 15.6943 7.96698 15.5943C7.96698 15.2943 8.16698 15.1943 8.06698 14.7943C8.16698 14.5943 8.36698 14.4943 8.36698 14.0943C8.26698 13.9943 8.26698 13.7943 8.06698 13.6943C8.06698 13.4943 7.66698 13.5943 7.66698 13.4943C7.36698 13.4943 7.26698 13.4943 7.06698 13.3943C6.86698 13.3943 6.56698 13.4943 6.56698 13.2943C5.76698 13.2943 5.26698 12.8943 4.66698 12.5943C5.06698 12.2943 5.66698 12.1943 5.96698 11.8943C6.46698 11.7943 7.06698 11.7943 7.06698 11.1943C7.06698 10.4943 6.26698 10.4943 5.76698 10.3943C4.96698 9.69434 4.56698 8.69434 3.96698 7.89434C4.16698 7.69434 4.56698 7.69433 4.66698 7.49434C5.16698 7.59434 5.16698 7.19433 5.36698 6.99434C5.36698 6.49434 5.06698 6.39434 4.76698 6.19434C4.46698 5.99434 4.26698 5.69433 4.06698 5.49434C4.06698 4.69433 4.06698 3.79433 4.16698 3.09433C4.26698 3.09433 4.26698 3.09434 4.26698 3.19434C4.46698 3.59434 4.86698 3.99434 5.06698 4.39434C5.56698 4.79434 5.96698 5.29434 6.66698 5.49434C7.16698 5.89434 7.76698 6.09434 8.26698 6.49434C8.86698 6.79434 9.46698 7.09434 9.96698 7.39434C10.667 7.59434 11.067 8.09434 11.967 7.99434C12.167 7.89434 12.367 7.79434 12.567 7.69434C12.867 7.19434 12.467 6.59433 12.667 6.09433C12.967 5.39433 13.467 5.09433 13.967 4.59433C14.267 4.39433 14.567 4.29433 14.767 4.09433C15.067 3.99433 15.467 3.89434 15.767 3.69434C16.167 3.69434 16.467 3.59433 16.767 3.59433H18.067C18.267 3.69433 18.567 3.69434 18.767 3.69434C18.967 3.79434 19.167 3.99433 19.467 4.09433C20.267 4.79433 20.767 5.79433 20.867 7.09433C20.867 7.39433 20.967 7.79434 20.967 8.39434ZM21.267 2.79433C21.167 3.09433 21.067 3.49433 20.667 3.59433C20.667 3.49433 20.567 3.49434 20.567 3.39434C20.567 3.19434 20.767 3.19433 20.867 3.09433C20.967 2.99433 21.067 2.79433 21.267 2.79433C21.267 2.69433 21.367 2.79433 21.267 2.79433ZM15.767 5.79433C15.967 5.89433 16.067 6.09434 16.267 6.19434C16.367 6.39434 16.567 6.49433 16.867 6.59433C16.867 6.39433 17.167 6.59434 17.267 6.39434C17.467 6.39434 17.467 6.19433 17.567 6.09433C17.567 5.59433 17.467 5.09433 17.167 4.79433C16.467 4.29433 15.467 4.79433 15.767 5.79433Z" fill="currentColor"/>
</symbol></svg>